<svg width="630" height="220" viewBox="0 0 630 220" fill="none" xmlns="http://www.w3.org/2000/svg">
<path d="M539.935 8.46845C537.802 9.26845 507.002 22.7351 471.669 38.3351C428.469 57.5351 406.602 66.6018 405.002 65.9351C403.669 65.4018 397.935 61.5351 392.335 57.2685C384.469 51.2685 381.002 49.5351 377.535 49.5351C369.802 49.5351 369.269 51.8018 374.602 63.4018C377.135 69.0018 379.269 73.9351 379.269 74.3351C379.269 74.6018 300.069 75.0018 203.135 75.1351L27.1352 75.5351L32.0685 81.2684L36.8685 87.0018L31.2685 108.602C28.2019 120.468 23.6685 137.668 21.2685 146.868C18.7352 156.068 15.2685 169.668 13.4019 177.002C11.5352 184.468 9.53521 191.535 9.13521 192.735C8.46854 194.602 9.93521 194.868 21.1352 194.868C36.3352 194.868 34.6019 196.868 40.6019 172.202C47.9352 142.468 46.4685 145.535 53.6685 145.535C59.9352 145.535 60.0685 145.402 69.0019 134.868L78.0685 124.202H66.0685C58.2019 124.202 53.9352 123.668 53.9352 122.735C53.9352 121.935 54.8685 118.202 55.8019 114.468C56.8685 110.602 58.4685 105.002 59.2685 101.802L60.7352 96.2018H231.669C344.469 96.2018 405.535 95.6684 411.269 94.7351C422.202 93.0018 439.402 87.2684 459.669 78.6018C468.335 75.0018 475.669 72.2018 475.935 72.4684C476.202 72.7351 473.802 87.5351 470.469 105.535C467.269 123.402 465.135 138.602 465.669 139.135C467.269 140.735 477.669 135.002 480.469 131.002C481.935 129.135 487.002 118.735 491.935 108.202C496.735 97.5351 504.469 81.0018 508.869 71.2684L517.002 53.6685L541.135 41.5351C566.069 29.1351 577.935 21.5351 577.935 18.2018C577.935 15.8018 570.602 10.3351 564.735 8.33512C559.135 6.46845 545.402 6.60179 539.935 8.46845Z" fill="white"/>
<path d="M417.669 17.1351C414.869 18.2017 412.602 19.8017 412.602 20.7351C412.602 22.0684 426.069 31.1351 439.269 38.6018L443.935 41.2684L457.135 35.4018C464.469 32.2018 470.869 29.1351 471.535 28.4684C473.002 27.0017 433.135 14.8684 427.135 15.0017C424.602 15.0017 420.335 15.9351 417.669 17.1351Z" fill="white"/>
<path d="M88.6019 109.002C88.6019 109.402 89.8019 111.268 91.2686 113.135C92.7352 115.002 93.9352 117.402 93.9352 118.335C93.9352 119.402 89.8019 136.068 84.6019 155.402C79.5352 174.735 75.2686 191.135 75.2686 192.068C75.2686 193.002 77.9352 193.535 82.6019 193.535C89.1352 193.535 89.9352 193.268 90.6019 190.468C96.4686 167.268 101.802 149.268 102.335 150.868C103.135 153.135 109.402 182.068 110.602 189.668C111.269 193.402 113.802 196.868 121.402 204.335C126.869 209.668 131.269 213.668 131.269 213.135C131.269 212.735 128.602 199.935 125.269 184.735C121.935 169.668 119.269 157.135 119.269 156.868C119.269 156.602 121.802 156.068 124.869 155.535C127.802 155.002 131.669 153.268 133.269 151.668C136.469 148.468 145.269 117.668 143.935 113.668C142.469 109.135 137.269 108.202 112.602 108.202C99.4019 108.202 88.6019 108.602 88.6019 109.002ZM127.269 121.135C127.135 123.135 122.202 141.268 121.402 142.735C120.335 144.335 103.269 144.868 103.269 143.135C103.402 141.268 108.335 123.135 109.135 121.668C110.202 120.068 127.269 119.535 127.269 121.135Z" fill="white"/>
<path d="M147.269 109.002C147.269 109.402 149.135 112.068 151.402 114.868L155.669 120.068L146.735 154.468C141.802 173.402 137.402 189.935 137.135 191.135C136.469 193.402 138.202 193.535 160.469 193.535H184.469L182.335 187.535L180.335 181.535H167.802C153.269 181.535 153.802 182.468 158.469 166.868C161.135 157.535 161.669 156.868 165.269 156.468C169.002 156.068 179.269 147.802 179.269 145.268C179.269 144.735 175.935 144.202 171.935 144.202C167.935 144.202 164.602 144.068 164.602 143.802C164.602 143.668 166.069 138.468 167.802 132.202L170.869 120.868L180.202 120.468C189.269 120.068 189.669 119.935 193.802 114.868C196.069 112.068 197.935 109.402 197.935 109.002C197.935 108.602 186.602 108.202 172.602 108.202C158.735 108.202 147.269 108.602 147.269 109.002Z" fill="white"/>
<path d="M201.935 109.668C201.935 110.468 203.402 112.868 205.269 115.135C207.135 117.268 208.602 119.935 208.602 121.002C208.602 123.002 191.935 187.668 190.335 191.668C189.802 193.268 193.269 193.535 213.935 193.535H238.069L237.135 190.468C234.202 181.002 235.135 181.535 221.269 181.535C214.335 181.535 208.602 181.135 208.602 180.468C208.735 179.935 210.069 174.468 211.802 168.202C214.869 157.002 214.869 156.868 219.535 156.202C222.602 155.802 225.535 154.068 228.335 150.735C230.735 148.068 232.602 145.402 232.602 145.002C232.602 144.468 229.535 144.335 225.802 144.602C222.202 144.868 218.869 144.602 218.602 144.202C218.335 143.668 219.002 140.335 220.069 136.735C221.135 133.135 222.602 127.935 223.402 125.135L224.735 120.202H233.669C242.335 120.202 242.869 120.068 247.669 115.135C250.335 112.335 252.602 109.668 252.602 109.135C252.602 108.602 241.269 108.202 227.269 108.202C209.669 108.202 201.935 108.602 201.935 109.668Z" fill="white"/>
<path d="M257.935 109.002C257.935 109.402 259.402 111.668 261.269 114.202L264.735 118.602L255.802 152.335C250.869 171.002 246.602 187.802 246.202 189.802L245.669 193.535H265.535H285.402L292.335 188.468C296.069 185.802 299.269 183.135 299.269 182.468C299.269 181.935 291.135 181.535 281.135 181.535C264.602 181.535 263.135 181.402 263.802 179.135C264.202 177.935 267.535 165.402 271.269 151.535C275.002 137.535 278.869 123.268 279.935 119.668C283.402 108.068 283.535 108.202 269.935 108.202C263.402 108.202 257.935 108.602 257.935 109.002Z" fill="white"/>
<path d="M315.269 109.002C315.269 109.402 316.735 111.668 318.735 113.802C320.602 116.068 321.802 118.602 321.535 119.402C321.135 120.202 318.469 130.735 315.269 142.868C312.202 155.002 307.935 171.135 305.802 178.735C303.669 186.468 301.935 192.868 301.935 193.135C301.935 193.402 305.402 193.535 309.669 193.535H317.402L328.335 152.468C334.335 129.802 339.269 110.602 339.269 109.802C339.269 108.735 335.402 108.202 327.269 108.202C320.735 108.202 315.269 108.602 315.269 109.002Z" fill="white"/>
<path d="M345.935 109.002C345.935 109.402 347.402 111.668 349.402 113.802C351.269 116.068 352.469 118.735 352.069 119.668C351.402 121.268 329.802 202.602 328.069 209.935L327.135 213.802L330.869 211.135C332.869 209.668 337.135 206.202 340.069 203.402C345.402 198.468 345.935 197.135 351.269 177.535C359.402 147.402 359.669 146.735 360.602 147.802C361.402 148.735 366.335 169.002 370.069 186.468L371.535 193.535H377.135H382.735L393.669 152.468C399.669 129.935 404.602 110.735 404.602 109.802C404.602 107.135 391.669 107.668 390.202 110.468C389.535 111.802 386.735 121.802 383.935 132.868C381.135 143.802 378.335 153.402 377.802 154.068C377.269 154.602 375.802 150.468 374.602 144.735C373.269 138.868 371.002 128.468 369.402 121.535L366.469 108.868L356.202 108.468C350.602 108.202 345.935 108.468 345.935 109.002Z" fill="white"/>
<path d="M409.935 109.402C409.935 109.935 411.669 112.735 413.802 115.402C417.535 120.068 417.535 120.335 415.935 126.468C414.869 130.068 410.735 145.535 406.735 161.135C402.602 176.735 398.869 190.335 398.469 191.535C397.802 193.268 400.602 193.535 421.935 193.535H446.069L445.135 190.468C442.202 181.002 443.135 181.535 429.135 181.535H416.335L417.135 177.802C417.669 175.802 419.269 170.202 420.735 165.135C423.269 156.468 423.535 156.202 427.802 156.202C431.269 156.202 433.002 155.135 436.335 151.002C438.735 148.068 440.602 145.402 440.602 145.002C440.602 144.468 437.935 144.335 434.602 144.468C431.269 144.468 428.202 144.202 427.802 143.802C427.002 143.002 427.802 138.735 431.402 125.135L432.735 120.202H441.669C450.335 120.202 450.869 120.068 455.669 115.135C458.335 112.335 460.602 109.668 460.602 109.135C460.602 108.602 449.269 108.202 435.269 108.202C421.402 108.202 409.935 108.735 409.935 109.402Z" fill="white"/>
</svg>
